<svg xmlns="http://www.w3.org/2000/svg" viewBox="0 0 1067 837.23"><defs><style>.cls-1{fill:#999;}.cls-2{fill:#102e41;}.cls-3{fill:#1b1464;}.cls-4{fill:none;stroke:#999;stroke-miterlimit:10;}</style></defs><title>Asset 2floorplan</title><g id="Layer_2" data-name="Layer 2"><g id="Layer_1-2" data-name="Layer 1"><path class="cls-1" d="M691.86,5.23l27.79,84.59V629.7H1066V832.23H19V461.72H39.9V5.23h652m.73-1H38.9V460.72H18V833.23H1067V628.7H720.65v-539L692.59,4.23Z"/><rect class="cls-2" x="0.5" y="0.73" width="692" height="8"/><path class="cls-1" d="M692,1.23v7H1v-7H692m1-1H0v9H693v-9Z"/><path class="cls-1" d="M37,10.23v460H30v-460h7m1-1H29v462h9V9.23Z"/><rect class="cls-3" x="14.5" y="471.73" width="9" height="365"/><path class="cls-1" d="M23,472.23v364H15v-364h8m1-1H14v366H24v-366Z"/><rect class="cls-3" x="0.5" y="0.73" width="157" height="8"/><path class="cls-1" d="M157,1.23v7H1v-7H157m1-1H0v9H158v-9Z"/><rect class="cls-3" x="214.5" y="0.73" width="70" height="8"/><path class="cls-1" d="M284,1.23v7H215v-7h69m1-1H214v9h71v-9Z"/><rect class="cls-3" x="341.5" y="0.73" width="70" height="8"/><path class="cls-1" d="M411,1.23v7H342v-7h69m1-1H341v9h71v-9Z"/><rect class="cls-3" x="471.5" y="0.73" width="70" height="8"/><path class="cls-1" d="M541,1.23v7H472v-7h69m1-1H471v9h71v-9Z"/><rect class="cls-3" x="599.5" y="0.73" width="56" height="8"/><path class="cls-1" d="M655,1.23v7H600v-7h55m1-1H599v9h57v-9Z"/><rect class="cls-3" x="0.5" y="146.73" width="152" height="8"/><path class="cls-1" d="M152,147.23v7H1v-7H152m1-1H0v9H153v-9Z"/><polygon class="cls-3" points="715.5 153.87 715.5 87.1 685.36 3.35 692.89 0.64 723.15 84.73 723.5 84.73 723.5 153.87 715.5 153.87"/><path class="cls-1" d="M692.59,1.28l30,83.29.24.66h.2v68.14h-7V87l-.06-.17L686,3.65l6.59-2.37m.6-1.28-8.47,3.05L715,87.19v67.18h9V84.23h-.5L693.19,0Z"/><rect class="cls-3" x="202.5" y="692.73" width="8" height="136"/><path class="cls-1" d="M210,693.23v135h-7v-135h7m1-1h-9v137h9v-137Z"/><rect class="cls-2" x="13.5" y="828.73" width="1053" height="8"/><path class="cls-1" d="M1066,829.23v7H14v-7H1066m1-1H13v9H1067v-9Z"/><path class="cls-1" d="M1059,633.23v7H716v-7h343m1-1H715v9h345v-9Z"/><rect class="cls-2" x="715.5" y="154.73" width="8" height="485"/><path class="cls-1" d="M723,155.23v484h-7v-484h7m1-1h-9v486h9v-486Z"/><rect class="cls-3" x="830.5" y="632.73" width="236" height="8"/><path class="cls-1" d="M1066,633.23v7H831v-7h235m1-1H830v9h237v-9Z"/><rect class="cls-3" x="443.5" y="828.73" width="53" height="8"/><path class="cls-1" d="M496,829.23v7H444v-7h52m1-1H443v9h54v-9Z"/><rect class="cls-3" x="329.5" y="828.73" width="53" height="8"/><path class="cls-1" d="M382,829.23v7H330v-7h52m1-1H329v9h54v-9Z"/><rect class="cls-3" x="13.5" y="828.73" width="255" height="8"/><path class="cls-1" d="M268,829.23v7H14v-7H268m1-1H13v9H269v-9Z"/><path class="cls-1" d="M152,147.23v7h-9v-7h9m1-1H142v9h11v-9Z"/><path class="cls-1" d="M508,146.23v7h-9v-7h9m1-1H498v9h11v-9Z"/><path class="cls-1" d="M267,146.23v7h-9v-7h9m1-1H257v9h11v-9Z"/><path class="cls-1" d="M620,146.23v7h-9v-7h9m1-1H610v9h11v-9Z"/><path class="cls-1" d="M153,288.23v7h-9v-7h9m1-1H143v9h11v-9Z"/><path class="cls-1" d="M509,287.23v7h-9v-7h9m1-1H499v9h11v-9Z"/><path class="cls-1" d="M268,287.23v7h-9v-7h9m1-1H258v9h11v-9Z"/><path class="cls-1" d="M621,287.23v7h-9v-7h9m1-1H611v9h11v-9Z"/><path class="cls-1" d="M151,588.23v7h-9v-7h9m1-1H141v9h11v-9Z"/><path class="cls-1" d="M507,587.23v7h-9v-7h9m1-1H497v9h11v-9Z"/><path class="cls-1" d="M266,587.23v7h-9v-7h9m1-1H256v9h11v-9Z"/><path class="cls-1" d="M394,588.23v7h-9v-7h9m1-1H384v9h11v-9Z"/><path class="cls-1" d="M394,458.23v7h-9v-7h9m1-1H384v9h11v-9Z"/><path class="cls-1" d="M393,288.23v7h-9v-7h9m1-1H383v9h11v-9Z"/><path class="cls-1" d="M619,587.23v7h-9v-7h9m1-1H609v9h11v-9Z"/><rect class="cls-3" x="37.5" y="76.73" width="115" height="6"/><path class="cls-1" d="M152,77.23v5H38v-5H152m1-1H37v7H153v-7Z"/><rect class="cls-3" x="0.5" y="290.73" width="36" height="8"/><path class="cls-1" d="M36,291.23v7H1v-7H36m1-1H0v9H37v-9Z"/><rect class="cls-3" x="0.5" y="461.73" width="37" height="9"/><path class="cls-1" d="M37,462.23v8H1v-8H37m1-1H0v10H38v-10Z"/><line class="cls-4" x1="151.5" y1="154.73" x2="382.5" y2="154.73"/><line class="cls-4" x1="195" y1="81.73" x2="341" y2="81.73"/><line class="cls-4" x1="153" y1="29.73" x2="374.5" y2="29.73"/><line class="cls-4" x1="153" y1="129.73" x2="372" y2="129.73"/><line class="cls-4" x1="117.5" y1="129.73" x2="152.5" y2="129.73"/><line class="cls-4" x1="118" y1="29.73" x2="153" y2="29.73"/><line class="cls-4" x1="377.5" y1="64.23" x2="377.5" y2="29.23"/><path class="cls-1" d="M340,65.23v33H196v-33H340m1-1H195v35H341v-35Z"/><rect class="cls-3" x="1013.5" y="828.73" width="53" height="8"/><path class="cls-1" d="M1066,829.23v7h-52v-7h52m1-1h-54v9h54v-9Z"/><rect class="cls-3" x="715.5" y="462.73" width="10" height="26"/><path class="cls-1" d="M725,463.23v25h-9v-25h9m1-1H715v27h11v-27Z"/><rect class="cls-3" x="715.5" y="520.73" width="10" height="35"/><path class="cls-1" d="M725,521.23v34h-9v-34h9m1-1H715v36h11v-36Z"/><rect class="cls-3" x="714.5" y="573.73" width="10" height="28"/><path class="cls-1" d="M724,574.23v27h-9v-27h9m1-1H714v29h11v-29Z"/><rect class="cls-3" x="715.5" y="621.73" width="10" height="19"/><path class="cls-1" d="M725,622.23v18h-9v-18h9m1-1H715v20h11v-20Z"/><rect class="cls-3" x="900.5" y="828.73" width="53" height="8"/><path class="cls-1" d="M953,829.23v7H901v-7h52m1-1H900v9h54v-9Z"/><rect class="cls-3" x="787.5" y="828.73" width="53" height="8"/><path class="cls-1" d="M840,829.23v7H788v-7h52m1-1H787v9h54v-9Z"/><rect class="cls-3" x="672.5" y="828.73" width="53" height="8"/><path class="cls-1" d="M725,829.23v7H673v-7h52m1-1H672v9h54v-9Z"/><rect class="cls-3" x="557.5" y="828.73" width="53" height="8"/><path class="cls-1" d="M610,829.23v7H558v-7h52m1-1H557v9h54v-9Z"/><rect class="cls-3" x="374.5" y="692.73" width="8" height="136"/><path class="cls-1" d="M382,693.23v135h-7v-135h7m1-1h-9v137h9v-137Z"/><rect class="cls-3" x="487.5" y="692.73" width="8" height="136"/><path class="cls-1" d="M495,693.23v135h-7v-135h7m1-1h-9v137h9v-137Z"/><rect class="cls-3" x="602.5" y="692.73" width="8" height="136"/><path class="cls-1" d="M610,693.23v135h-7v-135h7m1-1h-9v137h9v-137Z"/><line class="cls-4" x1="1059.5" y1="700.73" x2="1059.5" y2="829.73"/><path class="cls-1" d="M152,829.23v7h-9v-7h9m1-1H142v9h11v-9Z"/><path class="cls-1" d="M38,829.23v7H29v-7h9m1-1H28v9H39v-9Z"/><path class="cls-1" d="M268,829.23v7h-9v-7h9m1-1H258v9h11v-9Z"/><path class="cls-1" d="M382,829.23v7h-9v-7h9m1-1H372v9h11v-9Z"/><path class="cls-1" d="M496,829.23v7h-9v-7h9m1-1H486v9h11v-9Z"/><path class="cls-1" d="M610,829.23v7h-9v-7h9m1-1H600v9h11v-9Z"/><path class="cls-1" d="M725,829.23v7h-9v-7h9m1-1H715v9h11v-9Z"/><path class="cls-1" d="M840,829.23v7h-9v-7h9m1-1H830v9h11v-9Z"/><path class="cls-1" d="M953,829.23v7h-9v-7h9m1-1H943v9h11v-9Z"/><path class="cls-1" d="M954,633.23v7h-9v-7h9m1-1H944v9h11v-9Z"/><path class="cls-1" d="M840,633.23v7h-9v-7h9m1-1H830v9h11v-9Z"/><path class="cls-1" d="M725,463.23v7h-9v-7h9m1-1H715v9h11v-9Z"/><rect class="cls-3" x="714.5" y="383.73" width="10" height="8"/><path class="cls-1" d="M724,384.23v7h-9v-7h9m1-1H714v9h11v-9Z"/><rect class="cls-3" x="714.5" y="291.73" width="10" height="8"/><path class="cls-1" d="M724,292.23v7h-9v-7h9m1-1H714v9h11v-9Z"/><rect class="cls-3" x="714.5" y="145.73" width="10" height="8"/><path class="cls-1" d="M724,146.23v7h-9v-7h9m1-1H714v9h11v-9Z"/><path class="cls-1" d="M383,1.23v7h-9v-7h9m1-1H373v9h11v-9Z"/><path class="cls-1" d="M152,1.23v7h-9v-7h9m1-1H142v9h11v-9Z"/><path class="cls-1" d="M267,1.23v7h-9v-7h9m1-1H257v9h11v-9Z"/><path class="cls-1" d="M497,1.23v7h-9v-7h9m1-1H487v9h11v-9Z"/><path class="cls-1" d="M616,1.23v7h-9v-7h9m1-1H606v9h11v-9Z"/><rect class="cls-3" x="673.5" y="0.73" width="19" height="8"/><path class="cls-1" d="M692,1.23v7H674v-7h18m1-1H673v9h20v-9Z"/><path class="cls-1" d="M692,1.23v7h-9v-7h9m1-1H682v9h11v-9Z"/><rect class="cls-3" x="147.5" y="8.73" width="5" height="20.5"/><path class="cls-1" d="M152,9.23v19.5h-4V9.23h4m1-1h-6v21.5h6V8.23Z"/><rect class="cls-3" x="147.5" y="130.23" width="5" height="15.5"/><path class="cls-1" d="M152,130.73v14.5h-4v-14.5h4m1-1h-6v16.5h6v-16.5Z"/><rect class="cls-3" x="147.5" y="65.23" width="5" height="34"/><path class="cls-1" d="M152,65.73v33h-4v-33h4m1-1h-6v35h6v-35Z"/><rect class="cls-3" x="24.5" y="692.73" width="50.5" height="8"/><path class="cls-1" d="M74.5,693.23v7H25v-7H74.5m1-1H24v9H75.5v-9Z"/><rect class="cls-3" x="306" y="692.73" width="111" height="8"/><path class="cls-1" d="M416.5,693.23v7h-110v-7h110m1-1h-112v9h112v-9Z"/><rect class="cls-3" x="118" y="692.73" width="145" height="8"/><path class="cls-1" d="M262.5,693.23v7h-144v-7h144m1-1h-146v9h146v-9Z"/><rect class="cls-3" x="460" y="692.73" width="64.5" height="8"/><path class="cls-1" d="M524,693.23v7H460.5v-7H524m1-1H459.5v9H525v-9Z"/><rect class="cls-3" x="938" y="692.73" width="121.5" height="8"/><path class="cls-1" d="M1059,693.23v7H938.5v-7H1059m1-1H937.5v9H1060v-9Z"/><rect class="cls-3" x="789" y="692.73" width="106" height="8"/><path class="cls-1" d="M894.5,693.23v7h-105v-7h105m1-1h-107v9h107v-9Z"/><rect class="cls-3" x="684" y="692.73" width="62" height="8"/><path class="cls-1" d="M745.5,693.23v7h-61v-7h61m1-1h-63v9h63v-9Z"/><rect class="cls-3" x="571.5" y="692.73" width="69.5" height="8"/><path class="cls-1" d="M640.5,693.23v7H572v-7h68.5m1-1H571v9h70.5v-9Z"/><rect class="cls-3" x="715.5" y="765.23" width="8" height="63.5"/><path class="cls-1" d="M723,765.73v62.5h-7v-62.5h7m1-1h-9v64.5h9v-64.5Z"/><rect class="cls-3" x="715.5" y="692.73" width="8" height="43.5"/><path class="cls-1" d="M723,693.23v42.5h-7v-42.5h7m1-1h-9v44.5h9v-44.5Z"/><rect class="cls-3" x="831.5" y="765.23" width="8" height="63.5"/><path class="cls-1" d="M839,765.73v62.5h-7v-62.5h7m1-1h-9v64.5h9v-64.5Z"/><rect class="cls-3" x="831.5" y="692.73" width="8" height="43.5"/><path class="cls-1" d="M839,693.23v42.5h-7v-42.5h7m1-1h-9v44.5h9v-44.5Z"/><line class="cls-4" x1="117.5" y1="692.23" x2="117.5" y2="732.23"/><line class="cls-4" x1="305.5" y1="692.23" x2="305.5" y2="732.23"/><line class="cls-4" x1="1060" y1="689.73" x2="1033.5" y2="689.73"/><line class="cls-4" x1="746.5" y1="692.23" x2="746.5" y2="732.23"/><line class="cls-4" x1="937.5" y1="692.23" x2="937.5" y2="732.23"/><line class="cls-4" x1="714" y1="736.73" x2="742.5" y2="736.73"/><path class="cls-4" d="M721.5,764.73a26.41,26.41,0,0,0,21-28"/><line class="cls-4" x1="839.58" y1="736.73" x2="811.08" y2="736.73"/><path class="cls-4" d="M832.08,764.73a26.41,26.41,0,0,1-21-28"/><path class="cls-4" d="M117.91,130.12a30.6,30.6,0,0,1,7.59-20.39c8.54-9.57,20.08-10,22-10"/><path class="cls-4" d="M147.5,65.73a35,35,0,0,1-22-13,34.88,34.88,0,0,1-7-23"/><path class="cls-4" d="M1033.5,689.73c0-1.54-.1-11.56,8-19,9.16-8.42,20.82-6.24,22-6"/><path class="cls-4" d="M746.5,731.71c2.32.33,17,2.14,29.39-8.39a37.7,37.7,0,0,0,12.59-23.09"/><path class="cls-4" d="M117.48,732.71c-2.32.33-17,2.14-29.39-8.39A37.7,37.7,0,0,1,75.5,701.23"/><path class="cls-4" d="M304.48,731.71c-2.32.33-17,2.14-29.39-8.39a37.7,37.7,0,0,1-12.59-23.09"/><line class="cls-4" x1="460.5" y1="692.23" x2="460.5" y2="732.23"/><path class="cls-4" d="M460.5,732.73c-2.56.28-17.79,1.68-30.41-9.41a39.63,39.63,0,0,1-12.59-22.59"/><path class="cls-4" d="M937.48,732.71c-2.32.33-17,2.14-29.39-8.39a37.7,37.7,0,0,1-12.59-23.09"/><rect class="cls-3" x="374.5" y="9.73" width="6" height="19.5"/><path class="cls-1" d="M380,10.23v18.5h-5V10.23h5m1-1h-7v20.5h7V9.23Z"/><rect class="cls-3" x="374.5" y="65.23" width="6" height="88.5"/><path class="cls-1" d="M380,65.73v87.5h-5V65.73h5m1-1h-7v89.5h7V64.73Z"/><path class="cls-1" d="M373,131.23v22H325v-22h48m1-1H324v24h50v-24Z"/><path class="cls-4" d="M1040.5,641.73a27.11,27.11,0,0,0,7,13,27.55,27.55,0,0,0,17,8"/></g></g></svg>